<svg aria-hidden="true" style="width:0;height:0;position:absolute;overflow:hidden" xmlns="http://www.w3.org/2000/svg"><defs><symbol id="cocktail-svgrepo-com" viewBox="0 0 32 32"><path d="M28.571 7.917a.87.87 0 0 0-.629-1.471H21.32l1.007-2.159c.961.303 1.992-.086 2.401-.958.407-.873.041-1.912-.808-2.454l.216-.462a.29.29 0 0 0-.525-.245l-.216.462c-.962-.303-1.992.086-2.4.958s-.041 1.912.808 2.454L20.68 6.445H4.057a.87.87 0 0 0-.629 1.471l11.778 12.305v10.256h-3.272a.761.761 0 0 0 0 1.523h8.132a.762.762 0 0 0 0-1.523h-3.273V20.222L28.571 7.917zm-8.703.269-1.126 2.415H9.679l6.322 6.604 6.322-6.604h-2.94l1.126-2.415h5.397l-9.905 10.349L6.094 8.186h13.775z"/></symbol><symbol id="close" viewBox="0 0 32 32"><path d="m18.228 16 13.1-13.1A1.58 1.58 0 0 0 29.1.672L16 13.772 2.9.656A1.586 1.586 0 1 0 .656 2.9L13.772 16 .656 29.1a1.593 1.593 0 0 0-.552 1.139 1.572 1.572 0 0 0 1.003 1.532 1.578 1.578 0 0 0 1.776-.444l13.116-13.1 13.1 13.1a1.58 1.58 0 0 0 2.228-2.229l-13.1-13.1z"/></symbol><symbol id="heart" viewBox="0 0 32 32"><path stroke="#fd5103" style="stroke:var(--color1,#fd5103)" stroke-width="3.048" d="m14.698 27.26-.002-.002c-4.151-3.712-7.472-6.685-9.773-9.46-2.284-2.754-3.399-5.122-3.399-7.596 0-3.998 3.17-7.154 7.276-7.154 2.33 0 4.585 1.077 6.047 2.77L16 7.154l1.153-1.336c1.462-1.692 3.716-2.77 6.047-2.77 4.107 0 7.276 3.156 7.276 7.154 0 2.474-1.115 4.842-3.399 7.599-2.301 2.776-5.622 5.753-9.772 9.472l-.002.002-1.299 1.157-1.306-1.172z"/></symbol><symbol id="menu" viewBox="0 0 32 32"><path d="M1.067 7.467h29.867a1.067 1.067 0 0 1 0 2.134H1.067a1.067 1.067 0 0 1 0-2.134zM1.067 14.933h29.867a1.067 1.067 0 0 1 0 2.134H1.067a1.067 1.067 0 0 1 0-2.134zM1.067 22.4h29.867a1.067 1.067 0 0 1 0 2.134H1.067a1.067 1.067 0 0 1 0-2.134z"/></symbol></defs></svg>