<svg aria-hidden="true" style="width:0;height:0;position:absolute;overflow:hidden" xmlns="http://www.w3.org/2000/svg"><defs><symbol id="icon-bx_search" viewBox="0 0 32 32"><path fill="#fd5103" style="fill:var(--color1,#fd5103)" d="M13.333 24a10.603 10.603 0 0 0 6.529-2.251l5.861 5.861 1.885-1.885-5.861-5.861a10.602 10.602 0 0 0 2.252-6.531c0-5.881-4.785-10.667-10.667-10.667S2.665 7.451 2.665 13.333C2.665 19.214 7.45 24 13.332 24zm0-18.667c4.412 0 8 3.588 8 8s-3.588 8-8 8-8-3.588-8-8 3.588-8 8-8z"/></symbol><symbol id="icon-open" viewBox="0 0 60 32"><path d="M2 0h56a2 2 0 1 1 0 4H2a2 2 0 1 1 0-4zM2 14h56a2 2 0 1 1 0 4H2a2 2 0 1 1 0-4zM2 28h56a2 2 0 1 1 0 4H2a2 2 0 1 1 0-4z"/></symbol><symbol id="icon-close" viewBox="0 0 32 32"><path d="m18.228 16 13.1-13.1A1.58 1.58 0 0 0 29.1.672L16 13.772 2.9.656A1.586 1.586 0 1 0 .656 2.9L13.772 16 .656 29.1a1.593 1.593 0 0 0-.552 1.139 1.572 1.572 0 0 0 1.003 1.532 1.578 1.578 0 0 0 1.776-.444l13.116-13.1 13.1 13.1a1.58 1.58 0 0 0 2.228-2.229l-13.1-13.1z"/></symbol><symbol id="chevron-down" viewBox="0 0 32 32"><path d="m5.293 9.707 6 6a.999.999 0 0 0 1.414 0l6-6a.999.999 0 1 0-1.414-1.414L12 13.586 6.707 8.293a.999.999 0 1 0-1.414 1.414z"/></symbol></defs></svg>