<?xml version="1.0" standalone="no"?>
<!DOCTYPE svg PUBLIC "-//W3C//DTD SVG 20010904//EN"
 "http://www.w3.org/TR/2001/REC-SVG-20010904/DTD/svg10.dtd">
<svg version="1.0" xmlns="http://www.w3.org/2000/svg"
 width="512.000000pt" height="512.000000pt" viewBox="0 0 512.000000 512.000000"
 preserveAspectRatio="xMidYMid meet">

<g transform="translate(0.000000,512.000000) scale(0.100000,-0.100000)"
fill="#000000" stroke="none">
<path d="M160 5062 c-63 -32 -98 -63 -126 -116 -38 -67 -41 -169 -8 -232 12
-22 333 -459 713 -972 380 -512 691 -934 691 -938 0 -3 -15 -38 -34 -77 -55
-116 -67 -211 -46 -345 20 -121 68 -230 151 -345 27 -37 49 -70 49 -72 0 -3
-115 -5 -255 -5 -287 0 -300 -3 -363 -74 -44 -51 -56 -102 -48 -221 21 -323
129 -622 316 -874 71 -95 190 -222 264 -281 l56 -45 -59 -7 c-69 -8 -124 -40
-161 -95 -21 -31 -25 -48 -25 -114 0 -70 3 -81 30 -120 17 -23 50 -53 74 -66
l44 -23 1101 0 c1049 0 1103 1 1142 19 22 10 54 35 72 56 112 136 16 345 -159
345 l-41 0 118 113 c239 228 392 488 469 797 31 126 48 268 44 373 -4 76 -7
90 -34 128 -16 23 -50 53 -74 66 -43 23 -49 23 -353 23 -296 0 -308 1 -308 19
0 30 29 298 40 370 36 229 116 499 207 698 l28 62 443 -194 c253 -112 456
-195 473 -195 34 0 77 20 100 46 23 27 429 957 429 983 0 30 -24 83 -47 103
-35 31 -1318 588 -1354 588 -50 0 -95 -32 -122 -87 -13 -26 -68 -148 -121
-270 l-97 -222 21 -98 c11 -54 26 -102 33 -106 6 -4 35 -21 63 -37 48 -27 52
-32 58 -76 16 -117 13 -126 -73 -229 -89 -107 -215 -291 -283 -410 -137 -241
-212 -427 -345 -850 l-28 -90 -171 -3 -171 -2 -6 132 c-10 270 -103 496 -271
664 -87 87 -164 137 -267 175 -52 19 -84 23 -174 24 l-111 0 -589 1008 c-370
632 -604 1022 -628 1047 -22 21 -59 46 -85 54 -60 21 -148 20 -192 -2z"/>
</g>
</svg>
