<?xml version="1.0" standalone="no"?>
<!DOCTYPE svg PUBLIC "-//W3C//DTD SVG 20010904//EN"
 "http://www.w3.org/TR/2001/REC-SVG-20010904/DTD/svg10.dtd">
<svg version="1.0" xmlns="http://www.w3.org/2000/svg"
 width="512.000000pt" height="512.000000pt" viewBox="0 0 512.000000 512.000000"
 preserveAspectRatio="xMidYMid meet">

<g transform="translate(0.000000,512.000000) scale(0.100000,-0.100000)"
fill="#000000" stroke="none">
<path d="M1885 5111 c-459 -76 -802 -438 -844 -889 -44 -479 256 -915 719
-1048 79 -23 95 -24 121 -14 52 22 63 59 55 185 -11 197 -53 402 -127 628 -43
129 -46 161 -25 229 18 61 59 113 115 146 l46 27 478 5 479 5 24 28 c13 15 24
40 24 55 0 69 -110 245 -224 358 -132 132 -281 217 -464 265 -86 23 -293 33
-377 20z m200 -316 c22 -21 25 -33 25 -103 0 -64 -4 -84 -20 -104 -24 -32 -59
-39 -99 -22 -39 16 -51 47 -51 129 0 54 4 68 26 94 33 40 83 43 119 6z m-510
-610 c32 -31 32 -75 1 -111 -20 -24 -32 -28 -90 -32 -79 -5 -121 10 -142 50
-17 33 -11 62 19 96 18 19 30 22 104 22 76 0 86 -2 108 -25z"/>
<path d="M3463 4910 c-12 -5 -27 -19 -34 -32 -7 -13 -52 -167 -99 -343 l-87
-320 -629 -5 c-346 -3 -634 -8 -640 -12 -6 -4 -17 -21 -24 -38 -11 -26 -8 -41
20 -127 48 -148 86 -303 110 -453 12 -74 29 -145 36 -157 22 -35 55 -37 166
-9 244 60 420 40 649 -75 107 -53 195 -82 217 -70 13 7 66 186 211 723 106
392 197 723 202 736 8 22 9 22 237 22 217 0 231 1 256 21 19 15 26 30 26 54 0
91 -13 95 -332 94 -145 0 -273 -4 -285 -9z"/>
<path d="M3603 4190 c-12 -10 -24 -27 -27 -37 -27 -92 -226 -837 -226 -847 0
-32 29 -40 91 -27 136 28 239 91 239 147 0 99 71 427 130 598 36 109 37 130 5
161 -22 23 -32 25 -108 25 -69 0 -87 -3 -104 -20z"/>
<path d="M2424 3270 c-128 -18 -293 -81 -314 -120 -7 -13 -21 -59 -31 -103
-22 -91 -77 -214 -143 -320 -138 -221 -195 -434 -183 -681 13 -277 133 -577
299 -752 158 -166 421 -288 711 -329 l47 -6 -2 -392 -3 -392 -237 -5 c-229 -5
-238 -6 -260 -27 -33 -33 -30 -89 6 -119 l27 -24 550 0 551 0 29 29 c38 38 38
74 0 112 l-29 29 -231 0 -231 0 0 395 0 394 38 6 c298 47 504 153 701 361 269
282 376 686 281 1054 -28 110 -72 210 -146 332 -78 130 -107 192 -140 306 -38
134 -54 143 -177 108 -244 -71 -449 -55 -657 49 -173 87 -310 115 -456 95z"/>
</g>
</svg>
