<svg aria-hidden="true" style="position: absolute; width: 0; height: 0; overflow: hidden;" version="1.1" xmlns="http://www.w3.org/2000/svg" xmlns:xlink="http://www.w3.org/1999/xlink">
<defs>
<symbol id="cocktail-svgrepo-com" viewBox="0 0 32 32">
<path d="M28.571 7.917c0.241-0.252 0.308-0.623 0.171-0.943s-0.452-0.528-0.8-0.528h-6.622l1.007-2.159c0.961 0.303 1.992-0.086 2.401-0.958 0.407-0.873 0.041-1.912-0.808-2.454l0.216-0.462c0.068-0.146 0.005-0.318-0.14-0.385s-0.318-0.005-0.385 0.14l-0.216 0.462c-0.962-0.303-1.992 0.086-2.4 0.958s-0.041 1.912 0.808 2.454l-1.123 2.403h-16.623c-0.349 0-0.663 0.208-0.8 0.528s-0.069 0.692 0.171 0.943l11.778 12.305v10.256h-3.272c-0.42 0-0.761 0.341-0.761 0.761s0.34 0.762 0.761 0.762h8.132c0.42 0 0.761-0.341 0.761-0.762 0-0.42-0.34-0.761-0.761-0.761h-3.273v-10.255l11.778-12.305zM19.868 8.186l-1.126 2.415h-9.063l6.322 6.604 6.322-6.604h-2.94l1.126-2.415h5.397l-9.905 10.349-9.907-10.349h13.775z"></path>
</symbol>
<symbol id="close" viewBox="0 0 32 32">
<path d="M18.228 16l13.1-13.1c0.259-0.302 0.394-0.691 0.379-1.089s-0.18-0.775-0.462-1.056-0.659-0.446-1.056-0.462c-0.398-0.015-0.787 0.12-1.089 0.379l-13.1 13.1-13.1-13.116c-0.298-0.298-0.701-0.465-1.122-0.465s-0.824 0.167-1.122 0.465c-0.298 0.298-0.465 0.701-0.465 1.122s0.167 0.824 0.465 1.122l13.116 13.1-13.116 13.1c-0.165 0.142-0.3 0.316-0.395 0.512s-0.148 0.41-0.157 0.627 0.028 0.435 0.108 0.637c0.079 0.203 0.2 0.387 0.354 0.541s0.338 0.274 0.541 0.354 0.42 0.116 0.637 0.108c0.218-0.008 0.431-0.062 0.627-0.157s0.37-0.229 0.512-0.395l13.116-13.1 13.1 13.1c0.302 0.259 0.691 0.394 1.089 0.379s0.775-0.18 1.056-0.462 0.446-0.659 0.462-1.057c0.015-0.398-0.12-0.787-0.379-1.089l-13.1-13.1z"></path>
</symbol>
<symbol id="heart" viewBox="0 0 32 32">
<path fill="none" stroke="#fd5103" style="stroke: var(--color1, #fd5103)" stroke-linejoin="miter" stroke-linecap="butt" stroke-miterlimit="4" stroke-width="3.0476" d="M14.698 27.26l-0.002-0.002c-4.151-3.712-7.472-6.685-9.773-9.46-2.284-2.754-3.399-5.122-3.399-7.596 0-3.998 3.17-7.154 7.276-7.154 2.33 0 4.585 1.077 6.047 2.77l1.153 1.336 1.153-1.336c1.462-1.692 3.716-2.77 6.047-2.77 4.107 0 7.276 3.156 7.276 7.154 0 2.474-1.115 4.842-3.399 7.599-2.301 2.776-5.622 5.753-9.772 9.472-0.001 0.001-0.001 0.001-0.002 0.002l-1.299 1.157-1.306-1.172z"></path>
</symbol>
<symbol id="menu" viewBox="0 0 32 32">
<path d="M1.067 7.467h29.867c0.589 0 1.067 0.478 1.067 1.067s-0.478 1.067-1.067 1.067h-29.867c-0.589 0-1.067-0.478-1.067-1.067s0.478-1.067 1.067-1.067z"></path>
<path d="M1.067 14.933h29.867c0.589 0 1.067 0.478 1.067 1.067s-0.478 1.067-1.067 1.067h-29.867c-0.589 0-1.067-0.478-1.067-1.067s0.478-1.067 1.067-1.067z"></path>
<path d="M1.067 22.4h29.867c0.589 0 1.067 0.478 1.067 1.067s-0.478 1.067-1.067 1.067h-29.867c-0.589 0-1.067-0.478-1.067-1.067s0.478-1.067 1.067-1.067z"></path>
</symbol>
</defs>
</svg>
