<?xml version="1.0" standalone="no"?>
<!DOCTYPE svg PUBLIC "-//W3C//DTD SVG 20010904//EN"
 "http://www.w3.org/TR/2001/REC-SVG-20010904/DTD/svg10.dtd">
<svg version="1.0" xmlns="http://www.w3.org/2000/svg"
 width="512.000000pt" height="512.000000pt" viewBox="0 0 512.000000 512.000000"
 preserveAspectRatio="xMidYMid meet">

<g transform="translate(0.000000,512.000000) scale(0.100000,-0.100000)"
fill="#000000" stroke="none">
<path d="M1440 5107 c-49 -16 -133 -102 -148 -153 -7 -23 -12 -67 -12 -98 l0
-56 -56 0 c-87 0 -133 -18 -189 -75 -57 -56 -75 -102 -75 -188 l0 -55 -109 -4
c-118 -3 -141 -12 -185 -72 -19 -25 -21 -41 -21 -206 0 -165 2 -181 21 -206
44 -60 67 -69 185 -72 l109 -4 0 -78 0 -78 -109 -4 c-118 -3 -141 -12 -185
-72 -19 -25 -21 -41 -21 -206 0 -165 2 -181 21 -206 44 -60 67 -69 185 -72
l109 -4 0 -78 0 -78 -109 -4 c-118 -3 -141 -12 -185 -72 -19 -25 -21 -41 -21
-206 0 -165 2 -181 21 -206 44 -60 67 -69 185 -72 l109 -4 0 -78 0 -78 -109
-4 c-118 -3 -141 -12 -185 -72 -19 -25 -21 -41 -21 -206 0 -165 2 -181 21
-206 44 -60 67 -69 185 -72 l109 -4 0 -78 0 -78 -109 -4 c-118 -3 -141 -12
-185 -72 -19 -25 -21 -41 -21 -206 0 -165 2 -181 21 -206 44 -60 67 -69 185
-72 l109 -4 0 -78 0 -78 -109 -4 c-118 -3 -141 -12 -185 -72 -19 -25 -21 -41
-21 -206 0 -165 2 -181 21 -206 44 -60 67 -69 185 -72 l109 -4 0 -55 c0 -31 5
-74 12 -97 16 -55 99 -138 154 -154 32 -9 370 -12 1436 -12 1577 0 1453 -6
1531 80 49 55 67 103 67 184 l0 56 58 0 c87 0 144 23 195 80 24 26 49 66 55
88 17 57 17 4407 0 4464 -6 22 -31 62 -55 88 -78 87 47 80 -1537 79 -991 -1
-1411 -4 -1436 -12z m2855 -172 l25 -24 0 -2191 0 -2191 -25 -24 c-20 -21 -34
-25 -80 -25 l-55 0 0 2056 c0 1560 -3 2066 -12 2096 -6 22 -31 62 -55 88 -77
86 29 80 -1395 80 l-1258 0 0 55 c0 46 4 60 25 80 l24 25 1391 0 1391 0 24
-25z m-2695 -2535 l0 -2240 -215 0 c-216 0 -216 0 -240 25 -21 20 -25 34 -25
79 l0 54 109 4 c118 3 141 12 185 72 19 25 21 41 21 206 0 165 -2 181 -21 206
-44 60 -67 69 -185 72 l-109 4 0 78 0 78 109 4 c118 3 141 12 185 72 19 25 21
41 21 206 0 165 -2 181 -21 206 -44 60 -67 69 -185 72 l-109 4 0 78 0 78 109
4 c118 3 141 12 185 72 19 25 21 41 21 206 0 165 -2 181 -21 206 -44 60 -67
69 -185 72 l-109 4 0 78 0 78 109 4 c118 3 141 12 185 72 19 25 21 41 21 206
0 165 -2 181 -21 206 -44 60 -67 69 -185 72 l-109 4 0 78 0 78 109 4 c118 3
141 12 185 72 19 25 21 41 21 206 0 165 -2 181 -21 206 -44 60 -67 69 -185 72
l-109 4 0 78 0 78 109 4 c118 3 141 12 185 72 19 25 21 41 21 206 0 165 -2
181 -21 206 -44 60 -67 69 -185 72 l-109 4 0 54 c0 45 4 59 25 79 24 25 24 25
240 25 l215 0 0 -2240z m320 0 l0 -2240 -80 0 -80 0 0 2240 0 2240 80 0 80 0
0 -2240z m2055 2215 l25 -24 0 -2191 0 -2191 -25 -24 -24 -25 -936 0 -935 0 0
2240 0 2240 935 0 936 0 24 -25z m-2695 -415 l0 -120 -240 0 -240 0 0 120 0
120 240 0 240 0 0 -120z m0 -720 l0 -120 -240 0 -240 0 0 120 0 120 240 0 240
0 0 -120z m0 -720 l0 -120 -240 0 -240 0 0 120 0 120 240 0 240 0 0 -120z m0
-720 l0 -120 -240 0 -240 0 0 120 0 120 240 0 240 0 0 -120z m0 -720 l0 -120
-240 0 -240 0 0 120 0 120 240 0 240 0 0 -120z m0 -720 l0 -120 -240 0 -240 0
0 120 0 120 240 0 240 0 0 -120z"/>
<path d="M2480 4387 c-49 -16 -133 -102 -148 -153 -18 -60 -18 -3608 0 -3668
16 -55 99 -138 154 -154 30 -9 181 -12 556 -12 590 0 578 -2 651 80 24 26 49
66 55 88 17 57 17 3607 0 3664 -6 22 -31 62 -55 88 -73 82 -60 80 -657 79
-349 -1 -533 -5 -556 -12z m1095 -172 l25 -24 0 -1791 0 -1791 -25 -24 -24
-25 -511 0 -511 0 -24 25 -25 24 0 1791 0 1791 25 24 24 25 511 0 511 0 24
-25z"/>
<path d="M2665 4055 c-16 -15 -25 -36 -25 -55 0 -19 9 -40 25 -55 23 -24 29
-25 160 -25 l135 0 0 -55 c0 -46 -4 -60 -25 -80 -23 -24 -31 -25 -135 -25
-104 0 -112 -1 -135 -25 -33 -32 -33 -78 0 -111 25 -25 28 -26 153 -22 93 2
136 7 159 19 30 16 34 16 72 -3 35 -17 56 -19 165 -16 135 3 154 10 200 72 19
25 21 44 24 191 3 164 3 165 -22 190 l-25 25 -351 0 -351 0 -24 -25z m615
-215 l0 -80 -80 0 -80 0 0 80 0 80 80 0 80 0 0 -80z"/>
<path d="M2665 3415 c-25 -24 -25 -26 -25 -215 0 -189 0 -191 25 -215 15 -16
36 -25 55 -25 19 0 40 9 55 25 24 23 25 29 25 160 l0 135 80 0 80 0 0 -135 c0
-131 1 -137 25 -160 15 -16 36 -25 55 -25 19 0 40 9 55 25 24 23 25 29 25 160
l0 135 80 0 80 0 0 -135 c0 -131 1 -137 25 -160 15 -16 36 -25 55 -25 19 0 40
9 55 25 25 24 25 26 25 215 0 189 0 191 -25 215 l-24 25 -351 0 -351 0 -24
-25z"/>
<path d="M2735 2786 c-37 -17 -70 -52 -84 -89 -6 -16 -11 -96 -11 -178 0 -146
1 -151 25 -174 15 -16 36 -25 55 -25 19 0 40 9 55 25 24 23 25 29 25 160 l0
135 240 0 240 0 0 -135 c0 -131 1 -137 25 -160 32 -33 78 -33 111 0 25 25 25
26 22 190 -3 178 -7 191 -72 239 -26 20 -42 21 -314 23 -224 2 -294 0 -317
-11z"/>
<path d="M2665 2135 c-16 -15 -25 -36 -25 -55 0 -19 9 -40 25 -55 l24 -25 351
0 351 0 24 25 c16 15 25 36 25 55 0 19 -9 40 -25 55 l-24 25 -351 0 -351 0
-24 -25z"/>
<path d="M2665 1815 c-16 -15 -25 -36 -25 -55 0 -19 9 -40 25 -55 23 -24 29
-25 159 -25 l134 0 4 -109 c3 -118 12 -141 72 -185 25 -19 42 -21 166 -21 124
0 141 2 166 21 65 48 69 61 72 239 3 164 3 165 -22 190 l-25 25 -351 0 -351 0
-24 -25z m615 -215 l0 -80 -80 0 -80 0 0 80 0 80 80 0 80 0 0 -80z"/>
<path d="M2665 1175 c-25 -24 -25 -26 -25 -215 0 -189 0 -191 25 -215 15 -16
36 -25 55 -25 19 0 40 9 55 25 24 23 25 29 25 160 l0 135 80 0 80 0 0 -135 c0
-131 1 -137 25 -160 32 -33 78 -33 110 0 24 23 25 29 25 160 l0 135 80 0 80 0
0 -135 c0 -131 1 -137 25 -160 15 -16 36 -25 55 -25 19 0 40 9 55 25 25 24 25
26 25 215 0 189 0 191 -25 215 l-24 25 -351 0 -351 0 -24 -25z"/>
</g>
</svg>
